<?xml version="1.0" encoding="UTF-8" standalone="no"?>
<!DOCTYPE svg PUBLIC "-//W3C//DTD SVG 1.1//EN"
 "http://www.w3.org/Graphics/SVG/1.1/DTD/svg11.dtd">
<!-- Generated by graphviz version 12.2.1 (20241206.2353)
 -->
<!-- Title: pastafarianism Pages: 1 -->
<svg width="494pt" height="188pt"
 viewBox="0.00 0.00 494.09 188.00" xmlns="http://www.w3.org/2000/svg" xmlns:xlink="http://www.w3.org/1999/xlink">
<g id="graph0" class="graph" transform="scale(1 1) rotate(0) translate(4 184)">
<title>pastafarianism</title>
<polygon fill="white" stroke="none" points="-4,4 -4,-184 490.09,-184 490.09,4 -4,4"/>
<!-- Geodude pickup -->
<g id="node1" class="node">
<title>Geodude pickup</title>
<polygon fill="orange" stroke="black" points="365.66,-180 279.91,-180 279.91,-144 365.66,-144 365.66,-180"/>
<text text-anchor="middle" x="322.79" y="-160.2" font-family="Times,serif" font-size="9.00">Ⓜ Geodude pickup</text>
</g>
<!-- Pick up object -->
<g id="node2" class="node">
<title>Pick up object</title>
<polygon fill="orange" stroke="black" points="306.54,-108 229.04,-108 229.04,-72 306.54,-72 306.54,-108"/>
<text text-anchor="middle" x="267.79" y="-88.2" font-family="Times,serif" font-size="9.00">Ⓜ Pick up object</text>
</g>
<!-- Geodude pickup&#45;&gt;Pick up object -->
<g id="edge1" class="edge">
<title>Geodude pickup&#45;&gt;Pick up object</title>
<path fill="none" stroke="black" d="M309.19,-143.7C302.86,-135.64 295.2,-125.89 288.2,-116.98"/>
<polygon fill="black" stroke="black" points="291.09,-115 282.16,-109.29 285.59,-119.32 291.09,-115"/>
</g>
<!-- Lift base to clear table -->
<g id="node8" class="node">
<title>Lift base to clear table</title>
<ellipse fill="gray" stroke="black" cx="378.79" cy="-90" rx="54.35" ry="18"/>
<text text-anchor="middle" x="378.79" y="-86.7" font-family="Times,serif" font-size="9.00">Lift base to clear table</text>
</g>
<!-- Geodude pickup&#45;&gt;Lift base to clear table -->
<g id="edge7" class="edge">
<title>Geodude pickup&#45;&gt;Lift base to clear table</title>
<path fill="none" stroke="black" d="M336.63,-143.7C343.17,-135.52 351.11,-125.6 358.32,-116.58"/>
<polygon fill="black" stroke="black" points="361.03,-118.8 364.54,-108.8 355.56,-114.43 361.03,-118.8"/>
</g>
<!-- Find grasps for object -->
<g id="node3" class="node">
<title>Find grasps for object</title>
<ellipse fill="gray" stroke="black" cx="54.79" cy="-18" rx="54.79" ry="18"/>
<text text-anchor="middle" x="54.79" y="-14.7" font-family="Times,serif" font-size="9.00">Find grasps for object</text>
</g>
<!-- Pick up object&#45;&gt;Find grasps for object -->
<g id="edge2" class="edge">
<title>Pick up object&#45;&gt;Find grasps for object</title>
<path fill="none" stroke="black" d="M228.72,-76.16C193.41,-64.56 141.31,-47.43 103.34,-34.95"/>
<polygon fill="black" stroke="black" points="104.57,-31.67 93.97,-31.88 102.38,-38.32 104.57,-31.67"/>
</g>
<!-- Plan arm path -->
<g id="node4" class="node">
<title>Plan arm path</title>
<ellipse fill="gray" stroke="black" cx="165.79" cy="-18" rx="37.74" ry="18"/>
<text text-anchor="middle" x="165.79" y="-14.7" font-family="Times,serif" font-size="9.00">Plan arm path</text>
</g>
<!-- Pick up object&#45;&gt;Plan arm path -->
<g id="edge3" class="edge">
<title>Pick up object&#45;&gt;Plan arm path</title>
<path fill="none" stroke="black" d="M242.31,-71.52C228.27,-61.88 210.76,-49.86 196.03,-39.76"/>
<polygon fill="black" stroke="black" points="198.29,-37.06 188.07,-34.29 194.33,-42.84 198.29,-37.06"/>
</g>
<!-- Smooth trajectory -->
<g id="node5" class="node">
<title>Smooth trajectory</title>
<ellipse fill="gray" stroke="black" cx="267.79" cy="-18" rx="46.04" ry="18"/>
<text text-anchor="middle" x="267.79" y="-14.7" font-family="Times,serif" font-size="9.00">Smooth trajectory</text>
</g>
<!-- Pick up object&#45;&gt;Smooth trajectory -->
<g id="edge4" class="edge">
<title>Pick up object&#45;&gt;Smooth trajectory</title>
<path fill="none" stroke="black" d="M267.79,-71.7C267.79,-64.41 267.79,-55.73 267.79,-47.54"/>
<polygon fill="black" stroke="black" points="271.29,-47.62 267.79,-37.62 264.29,-47.62 271.29,-47.62"/>
</g>
<!-- Move arm -->
<g id="node6" class="node">
<title>Move arm</title>
<ellipse fill="gray" stroke="black" cx="362.79" cy="-18" rx="30.75" ry="18"/>
<text text-anchor="middle" x="362.79" y="-14.7" font-family="Times,serif" font-size="9.00">Move arm</text>
</g>
<!-- Pick up object&#45;&gt;Move arm -->
<g id="edge5" class="edge">
<title>Pick up object&#45;&gt;Move arm</title>
<path fill="none" stroke="black" d="M291.27,-71.7C304.57,-61.89 321.29,-49.58 335.21,-39.32"/>
<polygon fill="black" stroke="black" points="337.14,-42.25 343.11,-33.5 332.99,-36.61 337.14,-42.25"/>
</g>
<!-- Close gripper -->
<g id="node7" class="node">
<title>Close gripper</title>
<ellipse fill="gray" stroke="black" cx="448.79" cy="-18" rx="37.3" ry="18"/>
<text text-anchor="middle" x="448.79" y="-14.7" font-family="Times,serif" font-size="9.00">Close gripper</text>
</g>
<!-- Pick up object&#45;&gt;Close gripper -->
<g id="edge6" class="edge">
<title>Pick up object&#45;&gt;Close gripper</title>
<path fill="none" stroke="black" d="M306.62,-73.98C337.05,-62.21 379.22,-45.91 409.72,-34.11"/>
<polygon fill="black" stroke="black" points="410.91,-37.4 418.97,-30.53 408.38,-30.87 410.91,-37.4"/>
</g>
</g>
</svg>
