<?xml version="1.0" encoding="UTF-8" standalone="no"?>
<!DOCTYPE svg PUBLIC "-//W3C//DTD SVG 1.1//EN"
 "http://www.w3.org/Graphics/SVG/1.1/DTD/svg11.dtd">
<!-- Generated by graphviz version 12.2.1 (20241206.2353)
 -->
<!-- Title: pastafarianism Pages: 1 -->
<svg width="1024pt" height="260pt"
 viewBox="0.00 0.00 1023.71 260.00" xmlns="http://www.w3.org/2000/svg" xmlns:xlink="http://www.w3.org/1999/xlink">
<g id="graph0" class="graph" transform="scale(1 1) rotate(0) translate(4 256)">
<title>pastafarianism</title>
<polygon fill="white" stroke="none" points="-4,4 -4,-256 1019.71,-256 1019.71,4 -4,4"/>
<!-- Try both arms -->
<g id="node1" class="node">
<title>Try both arms</title>
<polygon fill="cyan" stroke="black" points="681.08,-226.54 681.08,-241.46 650.45,-252 607.13,-252 576.5,-241.46 576.5,-226.54 607.13,-216 650.45,-216 681.08,-226.54"/>
<text text-anchor="middle" x="628.79" y="-232.2" font-family="Times,serif" font-size="9.00">Ⓜ Try both arms</text>
</g>
<!-- Geodude pickup -->
<g id="node2" class="node">
<title>Geodude pickup</title>
<polygon fill="orange" stroke="black" points="615.66,-180 529.91,-180 529.91,-144 615.66,-144 615.66,-180"/>
<text text-anchor="middle" x="572.79" y="-160.2" font-family="Times,serif" font-size="9.00">Ⓜ Geodude pickup</text>
</g>
<!-- Try both arms&#45;&gt;Geodude pickup -->
<g id="edge1" class="edge">
<title>Try both arms&#45;&gt;Geodude pickup</title>
<path fill="none" stroke="black" d="M614.95,-215.7C608.5,-207.64 600.7,-197.89 593.57,-188.98"/>
<polygon fill="black" stroke="black" points="596.4,-186.91 587.42,-181.29 590.93,-191.28 596.4,-186.91"/>
</g>
<!-- Geodude pickup* -->
<g id="node10" class="node">
<title>Geodude pickup*</title>
<polygon fill="orange" stroke="black" points="775.91,-180 685.66,-180 685.66,-144 775.91,-144 775.91,-180"/>
<text text-anchor="middle" x="730.79" y="-160.2" font-family="Times,serif" font-size="9.00">Ⓜ Geodude pickup*</text>
</g>
<!-- Try both arms&#45;&gt;Geodude pickup* -->
<g id="edge9" class="edge">
<title>Try both arms&#45;&gt;Geodude pickup*</title>
<path fill="none" stroke="black" d="M652.96,-216.41C665.79,-207.61 681.78,-196.63 695.93,-186.92"/>
<polygon fill="black" stroke="black" points="697.85,-189.85 704.12,-181.3 693.89,-184.08 697.85,-189.85"/>
</g>
<!-- Pick up object -->
<g id="node3" class="node">
<title>Pick up object</title>
<polygon fill="orange" stroke="black" points="354.54,-108 277.04,-108 277.04,-72 354.54,-72 354.54,-108"/>
<text text-anchor="middle" x="315.79" y="-88.2" font-family="Times,serif" font-size="9.00">Ⓜ Pick up object</text>
</g>
<!-- Geodude pickup&#45;&gt;Pick up object -->
<g id="edge2" class="edge">
<title>Geodude pickup&#45;&gt;Pick up object</title>
<path fill="none" stroke="black" d="M529.48,-149.2C484.19,-136.87 413.19,-117.53 365.61,-104.57"/>
<polygon fill="black" stroke="black" points="366.67,-101.23 356.1,-101.98 364.83,-107.98 366.67,-101.23"/>
</g>
<!-- Lift base to clear table -->
<g id="node9" class="node">
<title>Lift base to clear table</title>
<ellipse fill="gray" stroke="black" cx="572.79" cy="-90" rx="54.35" ry="18"/>
<text text-anchor="middle" x="572.79" y="-86.7" font-family="Times,serif" font-size="9.00">Lift base to clear table</text>
</g>
<!-- Geodude pickup&#45;&gt;Lift base to clear table -->
<g id="edge8" class="edge">
<title>Geodude pickup&#45;&gt;Lift base to clear table</title>
<path fill="none" stroke="black" d="M572.79,-143.7C572.79,-136.41 572.79,-127.73 572.79,-119.54"/>
<polygon fill="black" stroke="black" points="576.29,-119.62 572.79,-109.62 569.29,-119.62 576.29,-119.62"/>
</g>
<!-- Find grasps for object -->
<g id="node4" class="node">
<title>Find grasps for object</title>
<ellipse fill="gray" stroke="black" cx="54.79" cy="-18" rx="54.79" ry="18"/>
<text text-anchor="middle" x="54.79" y="-14.7" font-family="Times,serif" font-size="9.00">Find grasps for object</text>
</g>
<!-- Pick up object&#45;&gt;Find grasps for object -->
<g id="edge3" class="edge">
<title>Pick up object&#45;&gt;Find grasps for object</title>
<path fill="none" stroke="black" d="M276.71,-78.52C231.63,-66.43 157.29,-46.49 107.21,-33.06"/>
<polygon fill="black" stroke="black" points="108.32,-29.73 97.75,-30.52 106.5,-36.49 108.32,-29.73"/>
</g>
<!-- Plan arm path -->
<g id="node5" class="node">
<title>Plan arm path</title>
<ellipse fill="gray" stroke="black" cx="165.79" cy="-18" rx="37.74" ry="18"/>
<text text-anchor="middle" x="165.79" y="-14.7" font-family="Times,serif" font-size="9.00">Plan arm path</text>
</g>
<!-- Pick up object&#45;&gt;Plan arm path -->
<g id="edge4" class="edge">
<title>Pick up object&#45;&gt;Plan arm path</title>
<path fill="none" stroke="black" d="M278.32,-71.52C255.1,-60.68 225.41,-46.82 202.36,-36.07"/>
<polygon fill="black" stroke="black" points="203.87,-32.91 193.33,-31.85 200.91,-39.25 203.87,-32.91"/>
</g>
<!-- Smooth trajectory -->
<g id="node6" class="node">
<title>Smooth trajectory</title>
<ellipse fill="gray" stroke="black" cx="267.79" cy="-18" rx="46.04" ry="18"/>
<text text-anchor="middle" x="267.79" y="-14.7" font-family="Times,serif" font-size="9.00">Smooth trajectory</text>
</g>
<!-- Pick up object&#45;&gt;Smooth trajectory -->
<g id="edge5" class="edge">
<title>Pick up object&#45;&gt;Smooth trajectory</title>
<path fill="none" stroke="black" d="M303.92,-71.7C298.38,-63.61 291.66,-53.81 285.53,-44.87"/>
<polygon fill="black" stroke="black" points="288.58,-43.14 280.04,-36.87 282.81,-47.1 288.58,-43.14"/>
</g>
<!-- Move arm -->
<g id="node7" class="node">
<title>Move arm</title>
<ellipse fill="gray" stroke="black" cx="362.79" cy="-18" rx="30.75" ry="18"/>
<text text-anchor="middle" x="362.79" y="-14.7" font-family="Times,serif" font-size="9.00">Move arm</text>
</g>
<!-- Pick up object&#45;&gt;Move arm -->
<g id="edge6" class="edge">
<title>Pick up object&#45;&gt;Move arm</title>
<path fill="none" stroke="black" d="M327.41,-71.7C332.92,-63.49 339.61,-53.52 345.68,-44.48"/>
<polygon fill="black" stroke="black" points="348.44,-46.65 351.1,-36.4 342.62,-42.75 348.44,-46.65"/>
</g>
<!-- Close gripper -->
<g id="node8" class="node">
<title>Close gripper</title>
<ellipse fill="gray" stroke="black" cx="448.79" cy="-18" rx="37.3" ry="18"/>
<text text-anchor="middle" x="448.79" y="-14.7" font-family="Times,serif" font-size="9.00">Close gripper</text>
</g>
<!-- Pick up object&#45;&gt;Close gripper -->
<g id="edge7" class="edge">
<title>Pick up object&#45;&gt;Close gripper</title>
<path fill="none" stroke="black" d="M349.01,-71.52C368.92,-61.03 394.21,-47.73 414.34,-37.13"/>
<polygon fill="black" stroke="black" points="415.79,-40.32 423.01,-32.57 412.53,-34.13 415.79,-40.32"/>
</g>
<!-- Pick up object* -->
<g id="node11" class="node">
<title>Pick up object*</title>
<polygon fill="orange" stroke="black" points="771.79,-108 689.79,-108 689.79,-72 771.79,-72 771.79,-108"/>
<text text-anchor="middle" x="730.79" y="-88.2" font-family="Times,serif" font-size="9.00">Ⓜ Pick up object*</text>
</g>
<!-- Geodude pickup*&#45;&gt;Pick up object* -->
<g id="edge10" class="edge">
<title>Geodude pickup*&#45;&gt;Pick up object*</title>
<path fill="none" stroke="black" d="M730.79,-143.7C730.79,-136.41 730.79,-127.73 730.79,-119.54"/>
<polygon fill="black" stroke="black" points="734.29,-119.62 730.79,-109.62 727.29,-119.62 734.29,-119.62"/>
</g>
<!-- Lift base to clear table* -->
<g id="node17" class="node">
<title>Lift base to clear table*</title>
<ellipse fill="gray" stroke="black" cx="846.79" cy="-90" rx="56.97" ry="18"/>
<text text-anchor="middle" x="846.79" y="-86.7" font-family="Times,serif" font-size="9.00">Lift base to clear table*</text>
</g>
<!-- Geodude pickup*&#45;&gt;Lift base to clear table* -->
<g id="edge16" class="edge">
<title>Geodude pickup*&#45;&gt;Lift base to clear table*</title>
<path fill="none" stroke="black" d="M759.76,-143.52C775.58,-133.97 795.28,-122.08 811.93,-112.03"/>
<polygon fill="black" stroke="black" points="813.29,-115.3 820.04,-107.14 809.67,-109.31 813.29,-115.3"/>
</g>
<!-- Find grasps for object* -->
<g id="node12" class="node">
<title>Find grasps for object*</title>
<ellipse fill="gray" stroke="black" cx="561.79" cy="-18" rx="57.41" ry="18"/>
<text text-anchor="middle" x="561.79" y="-14.7" font-family="Times,serif" font-size="9.00">Find grasps for object*</text>
</g>
<!-- Pick up object*&#45;&gt;Find grasps for object* -->
<g id="edge11" class="edge">
<title>Pick up object*&#45;&gt;Find grasps for object*</title>
<path fill="none" stroke="black" d="M689.45,-71.88C664.22,-61.43 631.98,-48.08 606.22,-37.4"/>
<polygon fill="black" stroke="black" points="607.59,-34.18 597.01,-33.59 604.91,-40.65 607.59,-34.18"/>
</g>
<!-- Plan arm path* -->
<g id="node13" class="node">
<title>Plan arm path*</title>
<ellipse fill="gray" stroke="black" cx="677.79" cy="-18" rx="40.36" ry="18"/>
<text text-anchor="middle" x="677.79" y="-14.7" font-family="Times,serif" font-size="9.00">Plan arm path*</text>
</g>
<!-- Pick up object*&#45;&gt;Plan arm path* -->
<g id="edge12" class="edge">
<title>Pick up object*&#45;&gt;Plan arm path*</title>
<path fill="none" stroke="black" d="M717.69,-71.7C711.41,-63.4 703.77,-53.31 696.86,-44.19"/>
<polygon fill="black" stroke="black" points="699.75,-42.21 690.93,-36.35 694.17,-46.44 699.75,-42.21"/>
</g>
<!-- Smooth trajectory* -->
<g id="node14" class="node">
<title>Smooth trajectory*</title>
<ellipse fill="gray" stroke="black" cx="784.79" cy="-18" rx="48.67" ry="18"/>
<text text-anchor="middle" x="784.79" y="-14.7" font-family="Times,serif" font-size="9.00">Smooth trajectory*</text>
</g>
<!-- Pick up object*&#45;&gt;Smooth trajectory* -->
<g id="edge13" class="edge">
<title>Pick up object*&#45;&gt;Smooth trajectory*</title>
<path fill="none" stroke="black" d="M744.14,-71.7C750.44,-63.52 758.09,-53.6 765.05,-44.58"/>
<polygon fill="black" stroke="black" points="767.7,-46.88 771.04,-36.82 762.16,-42.6 767.7,-46.88"/>
</g>
<!-- Move arm* -->
<g id="node15" class="node">
<title>Move arm*</title>
<ellipse fill="gray" stroke="black" cx="884.79" cy="-18" rx="33.37" ry="18"/>
<text text-anchor="middle" x="884.79" y="-14.7" font-family="Times,serif" font-size="9.00">Move arm*</text>
</g>
<!-- Pick up object*&#45;&gt;Move arm* -->
<g id="edge14" class="edge">
<title>Pick up object*&#45;&gt;Move arm*</title>
<path fill="none" stroke="black" d="M769.25,-71.52C793.82,-60.35 825.44,-45.98 849.39,-35.09"/>
<polygon fill="black" stroke="black" points="850.76,-38.31 858.42,-30.99 847.87,-31.94 850.76,-38.31"/>
</g>
<!-- Close gripper* -->
<g id="node16" class="node">
<title>Close gripper*</title>
<ellipse fill="gray" stroke="black" cx="975.79" cy="-18" rx="39.93" ry="18"/>
<text text-anchor="middle" x="975.79" y="-14.7" font-family="Times,serif" font-size="9.00">Close gripper*</text>
</g>
<!-- Pick up object*&#45;&gt;Close gripper* -->
<g id="edge15" class="edge">
<title>Pick up object*&#45;&gt;Close gripper*</title>
<path fill="none" stroke="black" d="M772.17,-74.62C775.08,-73.71 777.97,-72.82 780.79,-72 844.93,-53.23 862.71,-54.97 926.79,-36 929.34,-35.25 931.95,-34.44 934.58,-33.6"/>
<polygon fill="black" stroke="black" points="935.51,-36.98 943.91,-30.52 933.32,-30.33 935.51,-36.98"/>
</g>
</g>
</svg>
